# xmcd CD database file
#
# Track frame offsets:
#	150
#	34160
#	52308
#	76422
#	103127
#	138698
#	161622
#	197734
#
# Disc length: 2850 seconds
#
# Revision: 0
# Processed by: cddbd v1.4PL0 Copyright (c) Steve Scherf et al.
# Submitted via: CDex 1.50
#
DISCID=730b2008
DTITLE=Kenny Drew Trio - If You Could See Me Now
DYEAR=1974
DGENRE=Jazz
TTITLE0=In Your Own Sweet Way
TTITLE1=If You Could See Me Now
TTITLE2=All Souls Here
TTITLE3=I'm Old Fashioned
TTITLE4=A Stranger In Paradise
TTITLE5=Prelude To A Kiss
TTITLE6=This Is The Moment
TTITLE7=Oleo
EXTD=YEAR: 1974
EXTT0=
EXTT1=
EXTT2=
EXTT3=
EXTT4=
EXTT5=
EXTT6=
EXTT7=
PLAYORDER=
